<svg width="56" height="55" viewBox="0 0 56 55" fill="none" xmlns="http://www.w3.org/2000/svg">
    <path d="M42.1905 43.4138H14.3C9.44075 43.4138 5.5 39.473 5.5 34.6138V34.0555H50.9878V34.6138C50.9878 39.473 47.0498 43.4138 42.1905 43.4138Z" fill="#AD9DFF"/>
    <path d="M41.5902 44.7887H13.6502C8.054 44.7887 3.5 40.2347 3.5 34.6385V27.6205C3.5 26.8615 4.116 26.2455 4.875 26.2455C5.634 26.2455 6.25 26.8615 6.25 27.6205V34.6385C6.25 38.7195 9.56925 42.0387 13.6502 42.0387H41.5902C45.6712 42.0387 48.9905 38.7195 48.9905 34.6385V27.6205C48.9905 26.8615 49.6065 26.2455 50.3655 26.2455C51.1245 26.2455 51.7405 26.8615 51.7405 27.6205V34.6385C51.7377 40.2347 47.1865 44.7887 41.5902 44.7887Z" fill="#6A57C8"/>
    <path d="M38.1293 17.3094L28.8518 10.2811C28.6176 10.0992 28.3303 10.0007 28.0002 10C27.6701 9.99927 27.0688 10.4442 26.8333 10.625C22.9051 13.6433 18.9146 16.6763 18.157 17.1428C17.9117 17.2467 17.7176 17.4115 17.6056 17.6112C17.4935 17.8109 17.4699 18.034 17.5384 18.2454C17.6069 18.4568 17.7636 18.6443 17.9838 18.7783C18.2039 18.9122 18.475 18.985 18.754 18.9852C19.4012 18.9852 19.4539 18.9852 24.4633 15.1966C25.2585 14.5969 26.0461 13.9952 26.746 13.462V29.02C26.746 29.561 27.3079 30 28.0002 30C28.6925 30 29.2544 29.561 29.2544 29.02V13.462L36.3634 18.699C36.6092 18.8891 36.9278 18.9832 37.2463 18.9832C37.5699 18.9832 37.891 18.8872 38.1368 18.6931C38.2527 18.6019 38.3444 18.4937 38.4067 18.3748C38.469 18.2559 38.5007 18.1285 38.5 18C38.4993 17.8715 38.4662 17.7444 38.4026 17.6259C38.339 17.5074 38.2461 17.3999 38.1293 17.3094Z" fill="#6A57C8"/>
</svg>
