<svg width="30" height="32" viewBox="0 0 30 32" fill="none" xmlns="http://www.w3.org/2000/svg">
    <path d="M4.22727 1.60001H25.2273C26.5528 1.60001 27.6273 2.67446 27.6273 4.00001V28C27.6273 29.3256 26.5528 30.4 25.2273 30.4H4.22727C2.90172 30.4 1.82727 29.3256 1.82727 28V4.00001C1.82727 2.67446 2.90172 1.60001 4.22727 1.60001ZM4.22727 3.40001C4.06814 3.40001 3.91553 3.46322 3.80301 3.57574C3.69048 3.68826 3.62727 3.84088 3.62727 4.00001V28C3.62727 28.1591 3.69048 28.3117 3.80301 28.4243C3.91553 28.5368 4.06814 28.6 4.22727 28.6H25.2273C25.3864 28.6 25.539 28.5368 25.6515 28.4243C25.764 28.3117 25.8273 28.1591 25.8273 28V4.00001C25.8273 3.84088 25.764 3.68826 25.6515 3.57574C25.539 3.46322 25.3864 3.40001 25.2273 3.40001H4.22727ZM7.22727 7.75001H17.4273C17.666 7.75001 17.8949 7.84483 18.0637 8.01361C18.2324 8.18239 18.3273 8.41131 18.3273 8.65001C18.3273 8.8887 18.2324 9.11762 18.0637 9.2864C17.8949 9.45519 17.666 9.55001 17.4273 9.55001H7.22727C6.98857 9.55001 6.75966 9.45519 6.59087 9.2864C6.42209 9.11762 6.32727 8.8887 6.32727 8.65001C6.32727 8.41131 6.42209 8.18239 6.59087 8.01361C6.75966 7.84483 6.98857 7.75001 7.22727 7.75001ZM7.22727 12.55H12.6273C12.866 12.55 13.0949 12.6448 13.2637 12.8136C13.4324 12.9824 13.5273 13.2113 13.5273 13.45C13.5273 13.6887 13.4324 13.9176 13.2637 14.0864C13.0949 14.2552 12.866 14.35 12.6273 14.35H7.22727C6.98857 14.35 6.75966 14.2552 6.59087 14.0864C6.42209 13.9176 6.32727 13.6887 6.32727 13.45C6.32727 13.2113 6.42209 12.9824 6.59087 12.8136C6.75966 12.6448 6.98857 12.55 7.22727 12.55Z" fill="white" fill-opacity="0.6"/>
</svg>
