<svg width="32" height="32" viewBox="0 0 32 32" fill="none" xmlns="http://www.w3.org/2000/svg">
    <path opacity="0.99" d="M9.21163 26.9093C9.06548 26.9088 8.92204 26.8698 8.79575 26.7963L3.66665 23.8361C3.29251 23.6196 2.98175 23.3087 2.76543 22.9344C2.54911 22.5602 2.43481 22.1357 2.43396 21.7034C2.43396 21.5941 2.4555 21.4858 2.49735 21.3847C2.53921 21.2837 2.60055 21.1919 2.67789 21.1145C2.75522 21.0372 2.84703 20.9759 2.94807 20.934C3.04911 20.8921 3.15741 20.8706 3.26677 20.8706C3.37614 20.8706 3.48443 20.8921 3.58548 20.934C3.68652 20.9759 3.77833 21.0372 3.85566 21.1145C3.93299 21.1919 3.99434 21.2837 4.03619 21.3847C4.07804 21.4858 4.09959 21.5941 4.09959 21.7034C4.09959 21.9849 4.25314 22.2515 4.4984 22.3923L8.14955 24.4994C8.08403 23.8274 8.05129 23.1527 8.05145 22.4776C8.05145 18.1824 9.36305 14.0684 11.8434 10.5772C13.9152 7.66497 16.7077 5.34058 19.9476 3.83153L16.3988 1.78415C16.2774 1.71435 16.1399 1.67762 16 1.67762C15.86 1.67762 15.7225 1.71435 15.6011 1.78415L10.536 4.70593C10.4414 4.76054 10.3369 4.79597 10.2285 4.8102C10.1202 4.82443 10.0101 4.81718 9.9045 4.78886C9.79895 4.76054 9.7 4.71171 9.61332 4.64515C9.52664 4.57859 9.45392 4.49562 9.3993 4.40095C9.34469 4.30629 9.30926 4.2018 9.29503 4.09344C9.2808 3.98508 9.28805 3.87498 9.31637 3.76943C9.34469 3.66388 9.39352 3.56493 9.46008 3.47825C9.52663 3.39157 9.60961 3.31884 9.70428 3.26423L14.7651 0.340321C15.1401 0.124356 15.5651 0.0106812 15.9978 0.0106812C16.4305 0.0106812 16.8556 0.124356 17.2305 0.340321L22.2423 3.23011C22.3799 3.309 22.4921 3.4256 22.5657 3.56616C22.6392 3.70672 22.671 3.86537 22.6574 4.02342C22.6437 4.18146 22.5851 4.3323 22.4885 4.45814C22.3919 4.58398 22.2614 4.67958 22.1122 4.73365C18.5232 6.05495 15.4173 8.43009 13.2019 11.5476C10.9267 14.7389 9.70805 18.5626 9.71707 22.4818C9.71707 23.6378 9.82371 24.7979 10.0306 25.9283C10.0525 26.0482 10.0477 26.1715 10.0166 26.2894C9.98559 26.4073 9.92899 26.517 9.85085 26.6106C9.77271 26.7042 9.67495 26.7795 9.56448 26.8311C9.45402 26.8827 9.33356 26.9094 9.21163 26.9093ZM3.26784 13.4947C3.04725 13.4947 2.83569 13.4071 2.67971 13.2511C2.52372 13.0951 2.43609 12.8836 2.43609 12.663V8.88172C2.43609 8.00519 2.90528 7.18837 3.66665 6.74904L7.05762 4.79123C7.15242 4.73662 7.25705 4.70121 7.36554 4.68704C7.47402 4.67286 7.58424 4.68019 7.68989 4.70861C7.79555 4.73703 7.89457 4.78598 7.9813 4.85267C8.06804 4.91935 8.14079 5.00247 8.1954 5.09727C8.25002 5.19208 8.28542 5.29671 8.2996 5.40519C8.31378 5.51368 8.30645 5.6239 8.27803 5.72955C8.24961 5.8352 8.20066 5.93422 8.13397 6.02096C8.06728 6.1077 7.98417 6.18045 7.88936 6.23506L4.4984 8.19286C4.37757 8.26287 4.27717 8.3633 4.20721 8.48415C4.13724 8.60501 4.10013 8.74207 4.09959 8.88172V12.663C4.09959 12.8836 4.01196 13.0951 3.85597 13.2511C3.69999 13.4071 3.48843 13.4947 3.26784 13.4947Z" fill="white" fill-opacity="0.6"/>
    <path opacity="0.99" d="M22.6497 26.9882C22.4662 26.9889 22.2877 26.9289 22.1419 26.8176C21.9961 26.7063 21.8912 26.5499 21.8435 26.3727C21.7958 26.1956 21.808 26.0076 21.8782 25.8381C21.9484 25.6687 22.0727 25.5271 22.2317 25.4356L27.4994 22.3923C27.6209 22.3224 27.722 22.2217 27.7923 22.1004C27.8627 21.9792 27.8999 21.8415 27.9003 21.7013V17.4082C23.8753 20.2833 18.9431 21.5989 14.0208 21.1105C10.4488 20.7629 7.0292 19.4898 4.09959 17.4167V21.7034C4.09959 21.9849 4.25314 22.2515 4.4984 22.3923L9.62751 25.3546C9.81869 25.4649 9.95822 25.6466 10.0154 25.8598C10.0726 26.073 10.0428 26.3001 9.93248 26.4913C9.82218 26.6825 9.64046 26.822 9.42728 26.8792C9.21411 26.9364 8.98694 26.9066 8.79576 26.7963L3.66666 23.8361C3.29251 23.6196 2.98175 23.3087 2.76543 22.9344C2.54911 22.5602 2.43482 22.1357 2.43396 21.7034V15.717C2.43347 15.5579 2.47862 15.402 2.56406 15.2678C2.64949 15.1336 2.77162 15.0267 2.91597 14.9598C3.06031 14.8929 3.22082 14.8688 3.37844 14.8904C3.53607 14.9119 3.6842 14.9782 3.80528 15.0814C6.7425 17.5548 10.3612 19.0786 14.1829 19.4513C18.0994 19.8372 22.0381 18.9814 25.4414 17.0051C26.4143 16.4434 27.3356 15.7968 28.1947 15.0729C28.3157 14.9697 28.4639 14.9034 28.6215 14.8818C28.7791 14.8603 28.9396 14.8844 29.084 14.9513C29.2283 15.0181 29.3504 15.125 29.4359 15.2593C29.5213 15.3935 29.5665 15.5494 29.566 15.7085V21.7013C29.566 22.5757 29.0925 23.3946 28.3333 23.834L23.0655 26.8752C22.9393 26.9488 22.7958 26.9878 22.6497 26.9882Z" fill="white" fill-opacity="0.6"/>
    <path opacity="0.99" d="M16 30.5754C15.5734 30.5754 15.1469 30.4645 14.7673 30.2448L11.4339 28.3211C11.2424 28.2108 11.1026 28.029 11.0452 27.8156C10.9878 27.6022 11.0176 27.3748 11.1279 27.1833C11.2381 26.9919 11.42 26.8521 11.6334 26.7947C11.8467 26.7373 12.0742 26.767 12.2656 26.8773L15.6012 28.8031C15.7225 28.8729 15.86 28.9096 16 28.9096C16.1399 28.9096 16.2775 28.8729 16.3988 28.8031L19.585 26.9626C19.7765 26.8523 20.0039 26.8226 20.2173 26.88C20.4307 26.9374 20.6125 27.0772 20.7228 27.2687C20.8331 27.4601 20.8628 27.6875 20.8054 27.9009C20.748 28.1143 20.6082 28.2961 20.4168 28.4064L17.2327 30.2448C16.8579 30.4612 16.4327 30.5752 16 30.5754ZM22.6475 26.9903C22.5247 26.9907 22.4034 26.9638 22.2922 26.9117C22.181 26.8596 22.0827 26.7835 22.0045 26.6889C21.9262 26.5943 21.8698 26.4835 21.8394 26.3645C21.809 26.2456 21.8053 26.1213 21.8286 26.0008C22.5441 22.1955 22.0783 18.2624 20.4935 14.7295C18.8752 11.1089 16.1506 8.09457 12.7114 6.11989C11.7911 5.58836 10.8281 5.13465 9.83225 4.76351C9.6838 4.70891 9.55399 4.61312 9.45806 4.48736C9.36212 4.36161 9.30403 4.21111 9.2906 4.05351C9.27717 3.89591 9.30895 3.73775 9.38223 3.59758C9.4555 3.4574 9.56722 3.34103 9.70429 3.2621L14.7673 0.340321C15.1422 0.124355 15.5673 0.0106812 16 0.0106812C16.4326 0.0106812 16.8577 0.124355 17.2327 0.340321L22.2423 3.23011C22.4335 3.3404 22.573 3.52213 22.6302 3.73531C22.6874 3.94848 22.6576 4.17565 22.5473 4.36683C22.437 4.55801 22.2553 4.69754 22.0421 4.75474C21.8289 4.81193 21.6018 4.7821 21.4106 4.6718L16.3966 1.78202C16.2753 1.71222 16.1378 1.67548 15.9978 1.67548C15.8579 1.67548 15.7203 1.71222 15.599 1.78202L11.9884 3.86565C16.4473 5.94077 20.0068 9.55633 22.012 14.0471C23.4929 17.3468 24.0813 20.9776 23.7181 24.5761L27.4994 22.3923C27.6202 22.3223 27.7206 22.2218 27.7906 22.101C27.8606 21.9801 27.8977 21.8431 27.8982 21.7034C27.8982 21.4828 27.9858 21.2713 28.1418 21.1153C28.2978 20.9593 28.5094 20.8717 28.73 20.8717C28.9505 20.8717 29.1621 20.9593 29.3181 21.1153C29.4741 21.2713 29.5617 21.4828 29.5617 21.7034C29.5617 22.5778 29.0925 23.3968 28.3311 23.8361L23.0634 26.8773C22.9365 26.9512 22.7923 26.9902 22.6454 26.9903H22.6475ZM28.7321 13.4904C28.5115 13.4904 28.2999 13.4028 28.144 13.2468C27.988 13.0909 27.9003 12.8793 27.9003 12.6587V8.88172C27.9002 8.74171 27.8632 8.6042 27.7932 8.48294C27.7233 8.36168 27.6227 8.26092 27.5015 8.19073L24.0658 6.20733C23.8743 6.09704 23.7345 5.9152 23.6771 5.70182C23.6197 5.48845 23.6494 5.26101 23.7597 5.06955C23.87 4.87808 24.0519 4.73828 24.2652 4.68088C24.4786 4.62349 24.7061 4.65321 24.8975 4.76351L28.3333 6.7469C29.0946 7.18624 29.566 8.00305 29.566 8.87959V12.6566C29.566 12.8772 29.4783 13.0887 29.3224 13.2447C29.1664 13.4007 28.9548 13.4883 28.7342 13.4883L28.7321 13.4904Z" fill="white" fill-opacity="0.6"/>
</svg>
