<svg width="34" height="32" viewBox="0 0 34 32" fill="none" xmlns="http://www.w3.org/2000/svg">
    <path d="M5.62335 30.5274L5.59253 28.4726L10.8049 28.3939V16.548C10.8049 15.9795 11.2638 15.5206 11.8323 15.5206H14.8186V17.5754H12.8597V29.4076C12.8597 29.6777 12.7533 29.937 12.5636 30.1293C12.3739 30.3215 12.1161 30.4314 11.846 30.435L5.62335 30.5274ZM25.1405 15.5487L28.2912 15.5042L28.3203 17.5586L25.1696 17.6031L25.1405 15.5487Z" fill="white" fill-opacity="0.6"/>
    <path d="M27.6507 18.8973L31.6987 16.4829L27.5822 14.1849L27.6507 18.8973ZM23.548 25.113H21.5857V12.3219C21.5857 7.45547 17.6268 3.49657 12.7603 3.49657C7.89389 3.49657 3.93498 7.45547 3.93498 12.3219V25.113H1.97266V12.3219C1.97266 6.37328 6.8117 1.53424 12.7603 1.53424C18.709 1.53424 23.548 6.37328 23.548 12.3219V25.113Z" fill="white" fill-opacity="0.6"/>
    <path d="M19.0855 22.75H17.1232V12.9178C17.1232 10.5137 15.1677 8.5548 12.7602 8.5548C10.3526 8.5548 8.39714 10.5137 8.39714 12.9178V22.75H6.43481V12.9178C6.43481 9.43151 9.27043 6.59247 12.7602 6.59247C16.2499 6.59247 19.0855 9.42809 19.0855 12.9178V22.75Z" fill="white" fill-opacity="0.6"/>
</svg>
