<svg width="32" height="32" viewBox="0 0 32 32" fill="none" xmlns="http://www.w3.org/2000/svg">
    <path d="M12.9454 18.6182H5.38176C2.69085 18.6182 0.509033 16.5091 0.509033 13.9636V6.83637C0.509033 4.29092 2.69085 2.18182 5.38176 2.18182H12.9454C15.6363 2.18182 17.8181 4.29092 17.8181 6.83637V13.9636C17.7454 16.5091 15.6363 18.6182 12.9454 18.6182ZM5.38176 4.29091C3.85449 4.29091 2.69085 5.38182 2.69085 6.83637V13.9636C2.69085 15.3455 3.92722 16.5091 5.38176 16.5091H12.9454C14.4727 16.5091 15.6363 15.4182 15.6363 13.9636V6.83637C15.6363 5.45455 14.3999 4.29091 12.9454 4.29091H5.38176Z" fill="white" fill-opacity="0.5"/>
    <path d="M26.1817 26.9091H18.6181C15.7817 26.9091 13.7454 24.7273 13.7454 21.6727V17.2364C13.7454 16.6545 14.2545 16.1454 14.8363 16.1454C15.4181 16.1454 15.9272 16.6545 15.9272 17.2364V21.6727C15.9272 23.4909 17.0181 24.8 18.6181 24.8H26.1817C27.709 24.8 28.8727 23.7091 28.8727 22.2545V15.1273C28.8727 13.7454 27.6363 12.5818 26.1817 12.5818H17.0181C16.4363 12.5818 15.9272 12.0727 15.9272 11.4909C15.9272 10.9091 16.4363 10.4 17.0181 10.4H26.1817C28.8727 10.4 31.0545 12.5091 31.0545 15.0545V22.1818C31.0545 24.8727 28.8727 26.9091 26.1817 26.9091ZM8.21811 26.4727C5.01811 26.4727 2.47266 24.1454 2.47266 21.2364C2.47266 20.6545 2.98175 20.1454 3.56357 20.1454C4.14538 20.1454 4.65447 20.6545 4.65447 21.2364C4.65447 22.9818 6.25447 24.3636 8.29084 24.3636C8.87266 24.3636 9.38175 24.8727 9.38175 25.4545C9.23629 26.0364 8.79993 26.4727 8.21811 26.4727ZM26.909 8.79999C26.3272 8.79999 25.8181 8.2909 25.8181 7.70908C25.8181 5.96363 24.2181 4.58181 22.1817 4.58181C21.5999 4.58181 21.0908 4.07272 21.0908 3.4909C21.0908 2.90908 21.5999 2.39999 22.1817 2.39999C25.3817 2.39999 27.9272 4.72727 27.9272 7.63636C27.9999 8.2909 27.5636 8.79999 26.909 8.79999Z" fill="white" fill-opacity="0.5"/>
    <path d="M20.6546 21.4545H19.4182L22.1818 16.2909H23.4909L26.2546 21.4545H24.9455L24.2182 20H21.3091L20.6546 21.4545ZM22.8364 17.0909L21.6728 19.3454H24L22.8364 17.0909Z" fill="white"/>
    <path d="M8.94555 6.25455H9.67282V7.49091H12.3637V10.9091H11.6365V10.4727H9.67282V12.8727H8.94555V10.4727H6.98191V10.9091H6.25464V7.49091H8.94555V6.25455ZM6.98191 9.89091H8.94555V8.14546H6.98191V9.89091ZM9.67282 9.89091H11.6365V8.14546H9.67282V9.89091Z" fill="white"/>
</svg>
